HIERARCHY
ROOT Hips
{
	OFFSET 0.000000 0.000000 0.000000 
	CHANNELS 6 Xposition Yposition Zposition Yrotation Zrotation Xrotation 
	JOINT Lumbar
	{
		OFFSET 0.000000 0.000000 0.000000 
		CHANNELS 3 Zrotation Xrotation Yrotation
		JOINT Neck
		{
			OFFSET 0.000000 0.445665 0.000000 
			CHANNELS 3 Zrotation Xrotation Yrotation
			End Site
			{
				OFFSET 0.000000 0.227535 0.000000 
			}
		}
		JOINT RightShoulder
		{
			OFFSET 0.019635 0.377685 0.194865 
			CHANNELS 3 Zrotation Xrotation Yrotation
			JOINT RightElbow
			{
				OFFSET 0.000000 -0.243375 0.000000 
				CHANNELS 2 Zrotation Yrotation
				JOINT RightWrist
				{
					OFFSET 0.000000 -0.264825 0.000000 
					CHANNELS 2 Zrotation Xrotation
					End Site
					{
						OFFSET 0.006600 -0.176220 0.000990 
					}
				}
			}
		}
		JOINT LeftShoulder
		{
			OFFSET 0.019635 0.377685 -0.194865 
			CHANNELS 3 Zrotation Xrotation Yrotation
			JOINT LeftElbow
			{
				OFFSET 0.000000 -0.243375 0.000000 
				CHANNELS 2 Zrotation Yrotation
				JOINT LeftWrist
				{
					OFFSET 0.000000 -0.264825 0.000000 
					CHANNELS 2 Zrotation Xrotation
					End Site
					{
						OFFSET 0.006600 -0.176220 -0.000990 
					}
				}
			}
		}
	}
	JOINT RightHip
	{
		OFFSET 0.052140 -0.069960 0.075570 
		CHANNELS 3 Zrotation Xrotation Yrotation
		JOINT RightKnee
		{
			OFFSET 0.000000 -0.402270 0.000000 
			CHANNELS 1 Zrotation
			JOINT RightAnkle
			{
				OFFSET 0.000000 -0.404085 0.000000 
				CHANNELS 3 Zrotation Xrotation Yrotation
				End Site
				{
					OFFSET 0.204105 -0.089430 0.008415 
				}
			}
		}
	}
	JOINT LeftHip
	{
		OFFSET 0.052140 -0.069960 -0.075570 
		CHANNELS 3 Zrotation Xrotation Yrotation
		JOINT LeftKnee
		{
			OFFSET 0.000000 -0.402270 0.000000 
			CHANNELS 1 Zrotation
			JOINT LeftAnkle
			{
				OFFSET 0.000000 -0.404085 0.000000 
				CHANNELS 3 Zrotation Xrotation Yrotation
				End Site
				{
					OFFSET 0.204105 -0.089430 -0.008415 
				}
			}
		}
	}
}
MOTION
Frames: 19
Frame Time: 0.02
0.00216 -0.00107 -0.00092 -167.9602 -26.57078 -8.02631 39.76499 5.86701 -5.25223 -16.60592 3.07853 -1.21302 -25.37984 -21.92535 -19.29437 131.42463 49.14337 -18.04447 4.84952 -12.91534 14.40411 28.57476 134.30128 -44.36763 -18.68303 -6.7462 31.67203 7.43263 -25.23372 -22.01116 -6.37046 -0.58776 -2.53863 46.18688 22.76053 -10.68203 -32.07612 -8.21305 2.41363 3.49306
0.00197 -0.00105 -0.00113 -167.91205 -26.52489 -8.02373 39.7877 5.79529 -5.4714 -16.2793 2.82934 -1.21563 -24.75775 -20.0154 -18.94379 131.3784 50.97727 -18.19726 4.37595 -13.20282 13.63874 26.80241 134.30141 -43.96505 -18.86621 -6.70584 31.6338 7.48131 -25.03878 -22.00153 -6.36301 -0.60405 -2.54504 46.08296 22.73406 -10.85692 -32.04213 -8.22109 2.43426 3.50254
0.00178 -0.00103 -0.00133 -167.86423 -26.4792 -8.02118 39.81038 5.7238 -5.69011 -15.95331 2.58087 -1.21824 -24.13828 -18.11248 -18.59398 131.33179 52.80471 -18.35005 3.90394 -13.49088 12.87565 25.03565 134.30121 -43.56394 -19.0493 -6.66541 31.59575 7.52983 -24.84445 -21.99195 -6.35236 -0.61905 -2.55076 45.97939 22.70776 -11.03112 -32.00831 -8.2291 2.45483 3.512
0.0016 -0.00101 -0.00154 -167.81626 -26.43346 -8.01861 39.83303 5.6523 -5.90864 -15.62763 2.33244 -1.22085 -23.51824 -16.20861 -18.24439 131.28559 54.63283 -18.50243 3.43184 -13.77776 12.11263 23.26876 134.30126 -43.16268 -19.23197 -6.62514 31.55765 7.57836 -24.6501 -21.98236 -6.34417 -0.635 -2.557 45.8758 22.68139 -11.20543 -31.97444 -8.23711 2.4754 3.52146
0.00141 -0.00099 -0.00174 -167.76787 -26.38751 -8.01599 39.8557 5.58057 -6.12755 -15.30149 2.08334 -1.22346 -22.89526 -14.29725 -17.89427 131.24005 56.46769 -18.65468 2.95814 -14.06339 11.34734 21.4963 134.3018 -42.75973 -19.41458 -6.58505 31.51934 7.62705 -24.45517 -21.97271 -6.34104 -0.65295 -2.5643 45.77184 22.65484 -11.38052 -31.94039 -8.24515 2.49604 3.53094
0.00122 -0.00098 -0.00194 -167.72126 -26.34236 -8.01358 39.87838 5.50955 -6.3458 -14.97586 1.83621 -1.22606 -22.28318 -12.41218 -17.54519 131.19123 58.27943 -18.8086 2.48972 -14.35647 10.5889 19.74164 134.30009 -42.36246 -19.59868 -6.54392 31.48183 7.67521 -24.2621 -21.96324 -6.315 -0.6619 -2.56679 45.66911 22.62904 -11.55288 -31.90702 -8.25309 2.51646 3.54033
0.00104 -0.00096 -0.00215 -167.67116 -26.29565 -8.01074 39.90101 5.4372 -6.56515 -14.64946 1.58538 -1.22868 -21.64999 -10.47646 -17.19412 131.14885 60.13562 -18.9589 2.01122 -14.63456 9.81761 17.95303 134.30275 -41.95454 -19.77949 -6.50486 31.44276 7.72438 -24.06545 -21.95346 -6.33327 -0.68827 -2.57859 45.56402 22.60178 -11.73044 -31.87234 -8.26122 2.53729 3.54991
0.00085 -0.00094 -0.00235 -167.6242 -26.25037 -8.00832 39.92372 5.36607 -6.78349 -14.32395 1.33798 -1.23128 -21.03601 -8.58714 -16.84538 131.1009 61.95097 -19.11268 1.54194 -14.92589 9.058 16.19588 134.30169 -41.55582 -19.96349 -6.46401 31.40511 7.77262 -23.87222 -21.94393 -6.31398 -0.69981 -2.58248 45.4611 22.57582 -11.90336 -31.83884 -8.26919 2.55776 3.55931
0.00067 -0.00093 -0.00255 -167.58139 -26.20688 -8.00636 39.94642 5.29644 -7.00067 -13.99864 1.09456 -1.23386 -20.44641 -6.75517 -16.49732 131.04457 63.71643 -19.27032 1.08405 -15.23611 8.31301 14.47587 134.2948 -41.17069 -20.15095 -6.42046 31.36928 7.81973 -23.68261 -21.93485 -6.23511 -0.68813 -2.5739 45.36084 22.55163 -12.07004 -31.8069 -8.27691 2.57775 3.56849
0.00047 -0.0009 -0.00278 -167.51563 -26.15322 -8.00159 39.96886 5.21818 -7.22478 -13.66951 0.82759 -1.23657 -19.71924 -4.5951 -16.13885 131.03174 65.76904 -19.40456 0.56096 -15.4458 7.4849 12.53815 134.31758 -40.71438 -20.31719 -6.39091 31.32325 7.87338 -23.47048 -21.92359 -6.45789 -0.7947 -2.62866 45.24528 22.51779 -12.27092 -31.7663 -8.28592 2.60037 3.57893
0.0003 -0.0009 -0.00294 -167.49772 -26.12092 -8.00284 39.99202 5.15812 -7.43408 -13.3502 0.61073 -1.239 -19.28054 -3.12608 -15.80652 130.93021 67.21571 -19.58887 0.17527 -15.8622 6.83158 11.06242 134.28028 -40.40379 -20.52899 -6.33283 31.29853 7.91321 -23.30694 -21.91667 -6.07086 -0.66171 -2.55519 45.162 22.50397 -12.40073 -31.74376 -8.2923 2.6175 3.58675
0.00022 -0.00102 -0.00294 -167.6171 -26.14846 -8.02 40.0159 5.14859 -7.60399 -13.04366 0.52921 -1.24066 -19.65565 -3.58061 -15.5124 130.55725 66.98261 -19.90644 0.17189 -16.89498 6.66845 10.84527 134.05515 -40.5333 -20.86067 -6.1874 31.33468 7.91502 -23.26904 -21.9241 -3.76949 0.21891 -2.08079 45.16814 22.54831 -12.32448 -31.77308 -8.29051 2.61907 3.58704
0.00018 -0.00117 -0.00288 -167.78332 -26.19719 -8.04327 40.0408 5.15722 -7.75873 -12.74986 0.49837 -1.24204 -20.316 -4.72329 -15.25091 130.10041 66.14312 -20.27507 0.30573 -18.1252 6.67971 11.09399 133.77365 -40.8015 -21.23892 -6.01511 31.3918 7.90299 -23.28114 -21.93548 -0.89702 1.32462 -1.48604 45.20654 22.61213 -12.17881 -31.82006 -8.28625 2.61521 3.58476
0.00012 -0.0013 -0.00284 -167.92437 -26.23544 -8.06421 40.06596 5.1572 -7.91974 -12.45912 0.44578 -1.24355 -20.8317 -5.5342 -14.99616 129.70025 65.59359 -20.62307 0.37306 -19.23435 6.60326 11.13513 133.53336 -40.98017 -21.59944 -5.86092 31.43771 7.89734 -23.27565 -21.94342 1.55242 2.26686 -0.97927 45.22961 22.66491 -12.07221 -31.8575 -8.28377 2.61418 3.58391
5e-05 -0.00146 -0.0028 -168.08238 -26.27739 -8.08347 40.08781 5.15896 -8.08373 -12.12991 0.38798 -1.24507 -21.41263 -6.42982 -14.6497 129.22157 64.98656 -20.96031 0.45724 -20.48055 6.5595 11.15858 133.22841 -41.2717 -21.94619 -5.68136 31.49065 7.89124 -23.24948 -21.95815 4.67918 3.46276 -0.33455 45.25552 22.72698 -11.93406 -31.90153 -8.27855 2.61166 3.58199
2e-05 -0.00156 -0.00276 -168.21556 -26.31656 -8.10745 40.11713 5.16122 -8.23744 -11.88529 0.3529 -1.2465 -21.92376 -7.30838 -14.5029 128.88653 64.35 -21.33203 0.54002 -21.48264 6.49318 11.33075 133.04318 -41.36016 -22.33186 -5.54879 31.53407 7.88288 -23.27712 -21.95988 6.54817 4.19003 0.05491 45.28321 22.77431 -11.84475 -31.9358 -8.27838 2.6109 3.58163
8e-05 -0.00147 -0.00273 -168.27369 -26.34348 -8.1448 40.16384 5.16103 -8.37046 -11.85868 0.36942 -1.24773 -22.18483 -8.00089 -14.89221 128.96969 63.83259 -21.78696 0.57449 -21.80765 6.2858 11.78652 133.21626 -40.86356 -22.81945 -5.54796 31.54461 7.871 -23.45067 -21.92293 4.64917 3.51202 -0.32114 45.30753 22.77609 -11.91101 -31.94088 -8.29338 2.61695 3.58664
0.00018 -0.00131 -0.0027 -168.30419 -26.3667 -8.18633 40.2185 5.16058 -8.49279 -11.91896 0.40686 -1.24889 -22.36355 -8.64671 -15.4829 129.20031 63.29851 -22.27487 0.60451 -21.87144 6.05656 12.37877 133.50923 -40.1579 -23.34293 -5.5959 31.54506 7.85745 -23.67485 -21.8731 1.49271 2.36476 -0.95262 45.33259 22.76237 -12.02808 -31.93519 -8.31342 2.62485 3.59321
0.00028 -0.00118 -0.00267 -168.34414 -26.39122 -8.22475 40.27159 5.15986 -8.61759 -11.94774 0.43377 -1.25011 -22.57149 -9.2944 -15.98583 129.36259 62.73582 -22.74715 0.64401 -22.02534 5.86075 12.9162 133.7381 -39.53915 -23.84685 -5.62495 31.5511 7.84511 -23.86959 -21.83031 -0.98562 1.46946 -1.44657 45.35755 22.75581 -12.11951 -31.93304 -8.33073 2.63152 3.5988
